/* XPM */
static char *graphic[] = {
/* width height num_colors chars_per_pixel */
"32 32 313 2", 
/* colors */
"   c None",
".  c None",
"X  c None",
"o  c None",
"O  c None",
"+  c None",
"@  c #EB1B26",
"#  c None",
"$  c None",
"%  c #EC1B25",
"&  c #EC1B25",
"*  c None",
"=  c None",
"-  c None",
";  c None",
":  c None",
">  c #EC1B25",
",  c #EC1B25",
"<  c None",
"1  c #EB1C25",
"2  c #EC1B25",
"3  c #EC1B26",
"4  c None",
"5  c None",
"6  c None",
"7  c #EC1B25",
"8  c None",
"9  c #EC1B25",
"0  c None",
"q  c None",
"w  c None",
"e  c None",
"r  c #ED1B25",
"t  c None",
"y  c None",
"u  c #ED1B25",
"i  c None",
"p  c None",
"a  c #EC1B25",
"s  c None",
"d  c None",
"f  c #EC1B25",
"g  c #EB1A25",
"h  c #EB1A26",
"j  c None",
"k  c None",
"l  c None",
"z  c None",
"x  c #EC1B25",
"c  c #EC1B25",
"v  c #ED1B26",
"b  c None",
"n  c #EB1C25",
"m  c #EC1B25",
"M  c None",
"N  c #EC1B26",
"B  c #EB1C25",
"V  c #EC1B26",
"C  c None",
"Z  c None",
"A  c None",
"S  c None",
"D  c None",
"F  c #ED1B26",
"G  c None",
"H  c #EC1B25",
"J  c #EC1B25",
"K  c None",
"L  c None",
"P  c None",
"I  c None",
"U  c #EB1C25",
"Y  c #ED1B25",
"T  c #ED1B25",
"R  c None",
"E  c None",
"W  c None",
"Q  c #EC1B25",
"!  c None",
"~  c None",
"^  c #EC1B25",
"/  c #EC1B26",
"(  c #EC1B26",
")  c #EC1B25",
"_  c #EB1A26",
"`  c None",
"'  c None",
"]  c None",
"[  c None",
"{  c None",
"}  c None",
"|  c None",
" . c None",
".. c #EC1C25",
"X. c None",
"o. c None",
"O. c None",
"+. c None",
"@. c #EC1B26",
"#. c #EC1B26",
"$. c #EC1B26",
"%. c #EB1C25",
"&. c #EC1C25",
"*. c None",
"=. c None",
"-. c None",
";. c None",
":. c #EB1C24",
">. c #EB1C25",
",. c None",
"<. c None",
"1. c None",
"2. c #EB1C25",
"3. c None",
"4. c None",
"5. c None",
"6. c #EB1C26",
"7. c None",
"8. c None",
"9. c #EB1C26",
"0. c #EB1C26",
"q. c None",
"w. c None",
"e. c None",
"r. c None",
"t. c None",
"y. c None",
"u. c None",
"i. c #EC1C25",
"p. c None",
"a. c None",
"s. c None",
"d. c None",
"f. c None",
"g. c None",
"h. c None",
"j. c None",
"k. c None",
"l. c #EC1C24",
"z. c None",
"x. c None",
"c. c None",
"v. c #EC1C25",
"b. c #EB1D24",
"n. c None",
"m. c None",
"M. c None",
"N. c #EC1A26",
"B. c None",
"V. c None",
"C. c #ED1B25",
"Z. c None",
"A. c None",
"S. c #EC1C25",
"D. c None",
"F. c #EC1C25",
"G. c #ED1B26",
"H. c None",
"J. c None",
"K. c #ED1B26",
"L. c None",
"P. c None",
"I. c None",
"U. c None",
"Y. c None",
"T. c None",
"R. c None",
"E. c None",
"W. c #EB1B25",
"Q. c None",
"!. c #EB1B25",
"~. c None",
"^. c #EC1A25",
"/. c None",
"(. c None",
"). c None",
"_. c None",
"`. c None",
"'. c None",
"]. c None",
"[. c None",
"{. c None",
"}. c None",
"|. c None",
" X c #EC1C26",
".X c #EC1C25",
"XX c #ED1A25",
"oX c None",
"OX c None",
"+X c None",
"@X c None",
"#X c None",
"$X c None",
"%X c None",
"&X c None",
"*X c None",
"=X c None",
"-X c None",
";X c None",
":X c None",
">X c #EB1B25",
",X c #EB1B26",
"<X c #EC1C26",
"1X c None",
"2X c #EB1B26",
"3X c None",
"4X c None",
"5X c None",
"6X c #EC1C25",
"7X c None",
"8X c None",
"9X c #EC1C26",
"0X c None",
"qX c None",
"wX c None",
"eX c None",
"rX c #EC1C25",
"tX c None",
"yX c None",
"uX c None",
"iX c #EC1C26",
"pX c None",
"aX c None",
"sX c None",
"dX c None",
"fX c None",
"gX c None",
"hX c #ED1C26",
"jX c None",
"kX c #EC1C26",
"lX c #EC1C26",
"zX c #EB1B26",
"xX c #EC1C26",
"cX c None",
"vX c None",
"bX c None",
"nX c None",
"mX c #ED1C25",
"MX c #ED1C25",
"NX c None",
"BX c None",
"VX c None",
"CX c #EA1C24",
"ZX c None",
"AX c None",
"SX c None",
"DX c None",
"FX c None",
"GX c #EC1B25",
"HX c #EC1B26",
"JX c None",
"KX c #EC1B25",
"LX c None",
"PX c #EB1B25",
"IX c #EB1B26",
"UX c None",
"YX c None",
"TX c None",
"RX c #EC1B24",
"EX c #EC1B25",
"WX c None",
"QX c #ED1C25",
"!X c #EC1B24",
"~X c None",
"^X c #ED1C26",
"/X c None",
"(X c None",
")X c None",
"_X c #EA1A24",
"`X c #ED1C25",
"'X c None",
"]X c #ED1C25",
"[X c #ED1C26",
"{X c None",
"}X c #ED1C25",
"|X c #ED1C26",
" o c #EC1B25",
".o c #EB1B25",
"Xo c None",
"oo c None",
"Oo c None",
"+o c None",
"@o c #EC1B25",
"#o c None",
"$o c None",
"%o c None",
"&o c #ED1C25",
"*o c #EE1C26",
"=o c None",
"-o c #ED1C26",
";o c None",
":o c None",
">o c None",
",o c None",
"<o c #EC1B25",
"1o c None",
"2o c #ED1C26",
"3o c None",
"4o c #ED1C26",
"5o c #EC1B25",
"6o c None",
"7o c #EC1B25",
"8o c None",
"9o c #EC1B25",
"0o c #EB1B26",
"qo c None",
"wo c None",
"eo c None",
"ro c #EC1B25",
"to c None",
"yo c None",
"uo c #ED1C26",
"io c #EC1B26",
/* pixels */
"                            x.ZXJXt.                            ",
"                            s T F.8                             ",
"                          6 =.]X}XyXeX                          ",
"                        /.c.PXuouo:.I./.                        ",
"                        $oKXC.uouo^ r LX                        ",
"                      '.(.0ououououoc uX[.                      ",
"                      &Xv.lXuo@.4ouolXroTX                      ",
"                    _.3X( uo^ RXi.Q uo-oH.[                     ",
"                  /.Y.>.xXuo9 #o! 2.uouo0.;o/.                  ",
"                  B.&.$.uo6XfX .6 V.`XuoK.,X$X                  ",
"                `.0 f uoxXS.W     q Y lXuo<Xe.;                 ",
"                j n kXuo|X=X1X    { +om uokX<oj.                ",
"              :oM.H uo) i.1o        Q.u ^ uoJ 6oBX              ",
"              L.% xXuo.XnXM         /.{.mXuoxX6.cXO             ",
"            eob.4ouo@.h <             0X!.iXuo#...D.            ",
"          /.s.MXuoxX& .     = X.R gX    h.3 xXuoN k.`.          ",
"          E _ ) uoH %o:o    j.7oU #     t.z QXuo&o o;X          ",
"        x.r.[XuorXB AX      ,.% %.;o      z.@okXuo9XS t.        ",
"        s l.xXuo.o@X`.    n.$ W.` ).eo    `.p.V uoxXhX8         ",
"      6 sX]Xuo$.1 )X    /.FX_XvXW CXa./.    i HX#.uo2oO.eX      ",
"    /.c.7 uouo9.] /.  ; I XX}.t.1Xf.g VXYX  /.7X> xXuo:./X/.    ",
"    $oKXC.uoG.T.Xo    tXF & h.    g.^.zXTX    ;.k / uo^ EXLX    ",
"  '.oX0ouolX*o8X      tXv >X+.    l 2X!XU.      d 5olXuoc uX[.  ",
"  &X9olXuox OoK       ; +.dX`.    `.4.j '.      '.: ^XuolXroTX  ",
"_.3X@ uo^ N.C                                     toGXQ uo-oH.[ ",
",., xXlX2 Z /.                                    /.;oIXkXuo XjX",
"3o.XN ioe BX                                        :o~ <oa a X ",
"- A 'Xz.[.                                            '.dX~.A - ",
"      O               O   O     O O     O   O     O   O         ",
"*XqoUX} d.L (X(XL Z.P.<.pXyoA.m.R.8ob m.o.A.E.qoo J.P o.d.P b y.",
"<.q.4 %X5.:XaX* qX~XbXoow + D 1.t >o*.u.-.wo7.OX:X} D -.woaX| =o",
"' |.y +X,o4X4XG y 8.SXw.4X5XNX#X-Xu.3.-X~X:Xp wX#X5 WXWX-X{XDX]."
};
