/* XPM */
static char *graphic[] = {
/* width height num_colors chars_per_pixel */
"64 64 537 2", 
/* colors */
"   c None",
".  c #ED1B25",
"X  c None",
"o  c None",
"O  c None",
"+  c None",
"@  c #EE1C26",
"#  c None",
"$  c None",
"%  c #EB1B25",
"&  c #EC1B25",
"*  c None",
"=  c None",
"-  c #EB1B26",
";  c None",
":  c None",
">  c None",
",  c #EC1B25",
"<  c #EC1B25",
"1  c None",
"2  c None",
"3  c None",
"4  c None",
"5  c None",
"6  c None",
"7  c None",
"8  c None",
"9  c None",
"0  c None",
"q  c #EC1B25",
"w  c #19191D",
"e  c None",
"r  c #EC1B25",
"t  c None",
"y  c #EC1B26",
"u  c None",
"i  c None",
"p  c #EC1B25",
"a  c None",
"s  c None",
"d  c #ED1925",
"f  c None",
"g  c None",
"h  c None",
"j  c None",
"k  c None",
"l  c #EB1C24",
"z  c None",
"x  c None",
"c  c #EC1B25",
"v  c #EC1B25",
"b  c #ED1B27",
"n  c None",
"m  c #EC1B25",
"M  c None",
"N  c None",
"B  c #EB1A24",
"V  c None",
"C  c #ED1B25",
"Z  c #EC1B25",
"A  c #1C1C1C",
"S  c None",
"D  c #ED1B25",
"F  c None",
"G  c #1C1C1C",
"H  c #1C1C1C",
"J  c None",
"K  c #EB1C24",
"L  c #EC1B25",
"P  c #1C1C1C",
"I  c #EC1B25",
"U  c None",
"Y  c #1C1C1C",
"T  c None",
"R  c None",
"E  c #EC1B25",
"W  c None",
"Q  c #EB1A24",
"!  c #EC1B25",
"~  c None",
"^  c None",
"/  c None",
"(  c #1C1C1C",
")  c None",
"_  c None",
"`  c None",
"'  c None",
"]  c #1C1C1C",
"[  c None",
"{  c #1C1C1C",
"}  c #EB1C25",
"|  c #ED1B25",
" . c #EC1B25",
".. c None",
"X. c None",
"o. c None",
"O. c None",
"+. c #EC1B25",
"@. c #EC1B25",
"#. c None",
"$. c None",
"%. c None",
"&. c #ED1B24",
"*. c #EC1B25",
"=. c #EB1A26",
"-. c #EC1B26",
";. c #EC1B25",
":. c #1C1C1C",
">. c #EC1B25",
",. c None",
"<. c #EC1B25",
"1. c None",
"2. c #1C1C1E",
"3. c None",
"4. c None",
"5. c None",
"6. c #1C1C1E",
"7. c None",
"8. c #EB1A26",
"9. c None",
"0. c #1C1C1C",
"q. c None",
"w. c None",
"e. c None",
"r. c None",
"t. c None",
"y. c #EC1B25",
"u. c None",
"i. c #EB1C24",
"p. c None",
"a. c #EC1B25",
"s. c #EC1B26",
"d. c #EC1B26",
"f. c #EC1B25",
"g. c None",
"h. c None",
"j. c None",
"k. c #EC1C25",
"l. c None",
"z. c None",
"x. c None",
"c. c None",
"v. c None",
"b. c #EC1C25",
"n. c None",
"m. c #EB1C24",
"M. c None",
"N. c #EC1B26",
"B. c None",
"V. c #ED1B26",
"C. c #EC1B26",
"Z. c None",
"A. c #EC1B26",
"S. c None",
"D. c None",
"F. c None",
"G. c #ED1B25",
"H. c None",
"J. c None",
"K. c #ED1B25",
"L. c None",
"P. c None",
"I. c None",
"U. c None",
"Y. c None",
"T. c None",
"R. c None",
"E. c None",
"W. c #1C1C1E",
"Q. c #1C1C1D",
"!. c None",
"~. c #EA1B24",
"^. c None",
"/. c None",
"(. c None",
"). c None",
"_. c None",
"`. c #EB1C25",
"'. c None",
"]. c None",
"[. c None",
"{. c #ED1B25",
"}. c None",
"|. c #EC1A25",
" X c None",
".X c #ED1B25",
"XX c None",
"oX c #ED1B25",
"OX c #ED1B25",
"+X c None",
"@X c None",
"#X c None",
"$X c #ED1B25",
"%X c #EB1A25",
"&X c None",
"*X c #1B1B1B",
"=X c None",
"-X c #EC1A24",
";X c #ED1B25",
":X c None",
">X c None",
",X c #EC1A24",
"<X c #ED1B26",
"1X c #ED1B25",
"2X c #EC1C26",
"3X c None",
"4X c None",
"5X c None",
"6X c #EB1C26",
"7X c None",
"8X c None",
"9X c None",
"0X c None",
"qX c #EA1B25",
"wX c None",
"eX c None",
"rX c None",
"tX c #ED1B25",
"yX c #1B1B1B",
"uX c #EA1B25",
"iX c #EA1B26",
"pX c None",
"aX c None",
"sX c None",
"dX c None",
"fX c None",
"gX c #1B1B1B",
"hX c #EC1A25",
"jX c None",
"kX c None",
"lX c #1B1B1C",
"zX c None",
"xX c None",
"cX c None",
"vX c None",
"bX c #ED1B25",
"nX c None",
"mX c #ED1B26",
"MX c None",
"NX c None",
"BX c None",
"VX c None",
"CX c #1B1B1B",
"ZX c #ED1B25",
"AX c #EC1C25",
"SX c None",
"DX c None",
"FX c None",
"GX c #ED1B26",
"HX c #1B1B1D",
"JX c #ED1B26",
"KX c #1B1B1D",
"LX c #EA1B25",
"PX c #1B1B1C",
"IX c #1B1B1D",
"UX c None",
"YX c None",
"TX c #EC1C25",
"RX c #ED1B25",
"EX c None",
"WX c None",
"QX c None",
"!X c None",
"~X c None",
"^X c #ED1B26",
"/X c #1B1B1D",
"(X c None",
")X c #1B1B1D",
"_X c None",
"`X c #1B1B1C",
"'X c #1B1B1D",
"]X c #EA1B26",
"[X c #EE1B25",
"{X c None",
"}X c None",
"|X c #ED1B26",
" o c #ED1B26",
".o c None",
"Xo c None",
"oo c #EC1A25",
"Oo c None",
"+o c None",
"@o c None",
"#o c #1B1B1D",
"$o c #EC1C25",
"%o c None",
"&o c #1B1B1D",
"*o c None",
"=o c None",
"-o c #1B1B1D",
";o c None",
":o c None",
">o c None",
",o c #EC1C25",
"<o c None",
"1o c None",
"2o c None",
"3o c None",
"4o c None",
"5o c #EB1B25",
"6o c None",
"7o c None",
"8o c #EC1C25",
"9o c None",
"0o c None",
"qo c None",
"wo c #EC1A25",
"eo c #EC1A26",
"ro c #1B1B1D",
"to c None",
"yo c None",
"uo c #EC1A26",
"io c None",
"po c None",
"ao c #1B1B1D",
"so c None",
"do c None",
"fo c None",
"go c #1B1B1C",
"ho c None",
"jo c None",
"ko c None",
"lo c #EB1B24",
"zo c #EC1C25",
"xo c None",
"co c None",
"vo c None",
"bo c None",
"no c #EC1C25",
"mo c #EC1C26",
"Mo c None",
"No c #EC1C26",
"Bo c #1B1B1C",
"Vo c #1B1B1C",
"Co c #EC1C25",
"Zo c #ED1A25",
"Ao c None",
"So c #1B1B1D",
"Do c None",
"Fo c None",
"Go c None",
"Ho c None",
"Jo c #EC1C25",
"Ko c #EC1C25",
"Lo c #EB1B24",
"Po c None",
"Io c None",
"Uo c None",
"Yo c None",
"To c None",
"Ro c None",
"Eo c #EC1C25",
"Wo c #EB1B24",
"Qo c #EC1C25",
"!o c #EB1B25",
"~o c None",
"^o c None",
"/o c #EC1A26",
"(o c None",
")o c None",
"_o c None",
"`o c None",
"'o c None",
"]o c None",
"[o c None",
"{o c None",
"}o c None",
"|o c #EB1B24",
" O c #EC1C25",
".O c None",
"XO c #EC1C26",
"oO c #EC1C26",
"OO c None",
"+O c #EC1C26",
"@O c None",
"#O c None",
"$O c None",
"%O c None",
"&O c #EB1B25",
"*O c None",
"=O c #ED1C24",
"-O c None",
";O c None",
":O c #EB1B26",
">O c #EC1C25",
",O c None",
"<O c #EB1B26",
"1O c #ED1C25",
"2O c #EC1C25",
"3O c None",
"4O c None",
"5O c #EC1C25",
"6O c #EC1C25",
"7O c None",
"8O c None",
"9O c #EB1B24",
"0O c None",
"qO c #EC1C26",
"wO c #EC1C26",
"eO c #1A1A1C",
"rO c #EB1B26",
"tO c None",
"yO c #1A1A1C",
"uO c None",
"iO c #EB1B25",
"pO c #ED1C25",
"aO c None",
"sO c None",
"dO c None",
"fO c None",
"gO c #EC1C26",
"hO c #EB1B26",
"jO c #EC1C26",
"kO c None",
"lO c #EB1B25",
"zO c None",
"xO c #EC1B24",
"cO c None",
"vO c None",
"bO c None",
"nO c #EC1B24",
"mO c None",
"MO c None",
"NO c None",
"BO c None",
"VO c None",
"CO c None",
"ZO c None",
"AO c None",
"SO c None",
"DO c #ED1C25",
"FO c #EC1B25",
"GO c None",
"HO c #1A1A1C",
"JO c None",
"KO c None",
"LO c #EB1B26",
"PO c #ED1A25",
"IO c None",
"UO c None",
"YO c None",
"TO c None",
"RO c None",
"EO c #ED1C25",
"WO c None",
"QO c None",
"!O c None",
"~O c None",
"^O c None",
"/O c None",
"(O c None",
")O c None",
"_O c None",
"`O c None",
"'O c #1D1D1D",
"]O c None",
"[O c None",
"{O c None",
"}O c #EC1B25",
"|O c #EC1B25",
" + c #EC1B26",
".+ c #1A1A1E",
"X+ c #EC1B26",
"o+ c None",
"O+ c None",
"++ c None",
"@+ c #EC1B24",
"#+ c None",
"$+ c None",
"%+ c #ED1C25",
"&+ c None",
"*+ c None",
"=+ c #ED1C26",
"-+ c None",
";+ c None",
":+ c None",
">+ c None",
",+ c None",
"<+ c None",
"1+ c None",
"2+ c #ED1C25",
"3+ c None",
"4+ c #EB1B25",
"5+ c #EB1B26",
"6+ c None",
"7+ c None",
"8+ c None",
"9+ c None",
"0+ c None",
"q+ c #EC1B25",
"w+ c None",
"e+ c #1D1D1F",
"r+ c None",
"t+ c None",
"y+ c None",
"u+ c None",
"i+ c #ED1C25",
"p+ c #EC1B24",
"a+ c None",
"s+ c #ED1C26",
"d+ c None",
"f+ c None",
"g+ c None",
"h+ c None",
"j+ c #1D1D1D",
"k+ c None",
"l+ c None",
"z+ c #ED1C26",
"x+ c None",
"c+ c #EC1B26",
"v+ c #EC1B25",
"b+ c #ED1C26",
"n+ c None",
"m+ c None",
"M+ c #EC1B25",
"N+ c None",
"B+ c None",
"V+ c None",
"C+ c #EB1B26",
"Z+ c #EB1B25",
"A+ c None",
"S+ c #EE1A25",
"D+ c None",
"F+ c None",
"G+ c None",
"H+ c #EC1B25",
"J+ c None",
"K+ c None",
"L+ c #ED1C26",
"P+ c None",
"I+ c #ED1C26",
"U+ c None",
"Y+ c None",
"T+ c #ED1C26",
"R+ c None",
"E+ c None",
"W+ c #ED1B25",
/* pixels */
"                                                            hoAO9o=X                                                            ",
"                                                            5.9Oy dX                                                            ",
"                                                          x 0o2+N.. 4O                                                          ",
"                                                        qoFXc T+T+OX3.qo                                                        ",
"                                                        K+uXa.T+T+2OLo3o                                                        ",
"                                                      5 9 C+T+T+T+T+oOB.ho                                                      ",
"                                                      0OiOgOT+T+T+T+jO&._X                                                      ",
"                                                    UObOd.T+T+T+T+T+T+2+YXx                                                     ",
"                                                  qoOOq T+T+T+T+T+T+T+T+c FXqo                                                  ",
"                                                  G+nOA.T+T+T+T+T+T+T+T+RX|O+X                                                  ",
"                                                to:XCoT+T+T+T+T+T+T+T+T+T+C+9 to                                                ",
"                                                R+K 5OT+T+T+T+T+T+T+T+T+T+gOiO0O                                                ",
"                                              =Xbo%+T+T+T+T+T+T+T+T+T+T+T+T+d.[ UO                                              ",
"                                              2 , jOT+T+T+T+T+ZX- T+T+T+T+T+I+$oE.qo                                            ",
"                                            4Od N.T+T+T+T+T+ o2XloC.T+T+T+T+T+A.iX~O                                            ",
"                                          qo3.oXT+T+T+T+T+T+p #OROpOjOT+T+T+T+T+E kOto                                          ",
"                                          3ol 2OT+T+T+T+T+s+,Oyod+u+Z+T+T+T+T+T+5O} vX                                          ",
"                                        hoxXGXT+T+T+T+T+gOS+).    `O|ogOT+T+T+T+T+>._.=X                                        ",
"                                        :+V.jOT+T+T+T+T+ .BO,.    toDoJoT+T+T+T+T+jO, F.                                        ",
"                                      x 0o2+T+T+T+T+T+a.-Xy+        >+Zo oT+T+T+T+T+b+W+w.                                      ",
"                                    qo*oc T+T+T+T+T+T+{.{Oqo        qoj.,oT+T+T+T+T+T+DO!Xqo                                    ",
"                                    ,+|Oa.T+T+T+T+T+z+fOv.            yoeXs+T+T+T+T+T+f.<O]O                                    ",
"                                  5 9 C+T+T+T+T+T+jOwoPo                ).AXgOT+T+T+T+T+oOB.,.                                  ",
"                                  0OiOgOT+T+T+T+T++O$.nX                ,.BO .T+T+T+T+T+jOLO:+                                  ",
"                                UO%O- T+T+T+T+T+2O]Xx+                    y+Q a.T+T+T+T+T+2+0o^o                                ",
"                              qoOOq T+T+T+T+T+T+L &+O.                    qo{O<XT+T+T+T+T+T+c *oqo                              ",
"                              S X+A.T+T+T+T+T+C.|.e                         v.g.z+T+T+T+T+T+a.|O4o                              ",
"                            tot.EOT+T+T+T+T+jOpOX                             Po1OjOT+T+T+T+T+C+9 to                            ",
"                            R+} 5OT+T+T+T+T+<.u+d+                            nX$.*.T+T+T+T+T+gOiO0O                            ",
"                          =X@O%+T+T+T+T+T+6O|o`O                                x+LX2OT+T+T+T+T+d.%OJ.                          ",
"                          F., jOT+T+T+T+T+JoDoto              toto              O.) I T+T+T+T+T+I+$oE.qo                        ",
"                        w.W+b+T+T+T+T+T+y.ZoMo            qoE+SXjo).to            e k.C.T+T+T+T+T+A. +QX                        ",
"                      qo!XoXT+T+T+T+T+T+m.j.qo            K+qX<.d.C U.              ROPOjOT+T+T+T+T+E ].to                      ",
"                      ]O<Of.T+T+T+T+T+s+eXyo              Po`.T+T+zoX               d+pXs.T+T+T+T+T+5O&O>X                      ",
"                    ,.9+GXT+T+T+T+T+gOoo).                0O, I+jOr aX                `OhOL+T+T+T+T+T+%+mO=X                    ",
"                    Fo9OjOT+T+T+T+T+ .N ,.              qo!Xno.Xv 4+WOto              to@o-.T+T+T+T+T+jO, 2                     ",
"                  l.0+2+T+T+T+T+T+% -Xy+                o+!o+.4.YO=+| vX                >+B  oT+T+T+T+T+b+W+w.                  ",
"                qo(Xc T+T+T+T+T+T+5+{Oqo              hoe.mXrO@Xy+hX@.rX=X              qo3 moT+T+T+T+T+T+oXBXqo                ",
"                R.|Oa.T+T+T+T+T+z+COv.                o lO$XxoO.qo{Om < NO                yo:  OT+T+T+T+T+2O:O]O                ",
"              5 T C+T+T+T+T+T+jO1OPo                6+;o*.FO*+    Oo7.Eob *O                ).H+gOT+T+T+T+T+XO!.ho              ",
"              0OiOgOT+T+T+T+T+Eo$.nX              qof+No=Ovo+       PowoZ 3Xqo              ,.AotXT+T+T+T+T+jO9OFo              ",
"            J.u.d.T+T+T+T+T+i+c+x+              x _o8.JXm+d+        nXM tX]Xvoe               #.,Xa.T+T+T+T+T+2+UX6+            ",
"          qoE.$oI+T+T+T+T+T+I a O.            4XfXK.2+< ++            vXeoqO8o7O+X            qot+6XT+T+T+T+T+T+c (Xqo          ",
"          QX~.A.T+T+T+T+T+C.k.e               z./oT+T+G.DX            U.uojOT+! {O              Oo%.wOT+T+T+T+T+RX}O4o          ",
"        to_ ! T+T+T+T+T+jO@ f                 z./oT+jO[X~X            ]Ov+gOT+;Xw+                TO& jOT+T+T+T+T+=+8X5         ",
"        >X&O5OT+T+T+T+T+bXg+d+                4Xg+%X< ~ 6+            nXAOTXK..O,+                nX$.EoT+T+T+T+T+gOM+0O        ",
"      =X@O%+T+T+T+T+T+L+|o`O                    l.YoZO6+                =X`OS.D+                    x+c+i+T+T+T+T+T+d.[ UO      ",
"      2 , jOT+T+T+T+T+-.@oto                                                                        O.a I T+T+T+T+T+jOq E.+     ",
"    w.5ob+T+T+T+T+T+ o=.>+                                                                            e b.|XT+T+T+T+T+A.xOQX    ",
"  qo!XZ T+T+T+T+T+T+mo6oqo                                                                              V+i.jOT+T+T+T+T+E kOto  ",
"  ]O:Of.T+T+T+T+T+s+^Oyo                                                                                d+g+<.T+T+T+T+T+5Oq+Ro  ",
"ho!.XOT+T+T+T+T+>O@+t                                                                                     R D C.T+T+T+T+T+Qo^.=X",
"3O9OjOT+T+T+jO^XWof to                                                                                    qo+oLobXjOT+T+T+jO, F.",
"pX4+;.;.*.1XLOu.t qo                                                                                        qo` u+p+! *.;.;.Ko`o",
"U+@o@o@oVOx.7o=X                                                                                                ~o..FXVO@o@o@o5X",
"                                                                                                                                ",
"                                                                                                                                ",
"                                                                                                                                ",
"    * +     8+/O# * +   # + + #     # +   ; :o*   # :o:o8O#   # * :o:o* * +   + /O/O+ + 8O:o#     :oMX;   # To.o+ + * # +   + * ",
"  /O(oU   EXP+= F H.X./O(O]o<o[OW =oKOA+MXa+'o9.Z.}X= /.ioKO:odo$+'oIoGO#+W QO%ocO9XSO]o9.$ [O:o0XJ+[oio]o#+)o= >oaOGo}XM.> 1.Go",
"+ '.-oP+ToKOHOpo1o-+c.N+0.^ VXW.6 X.tOJO1.PX7+Ion NX-o#+$+j n+z s #o/ 2oH 0XY.)XGofoyX$+CX[./Xp.jXP+GOg ' H copoyX Xe+{ogo#+r.'O",
"O+<+1+kXGO;+6 *Xdoo.KOsO:.lX#X.+eO0 z KO1.yOO ;+/XzOQ.L.>o0 n 9X XSoMO X/Xr+1 MO8+> $ V aoH /.Z.] r+  :ozXl+# B+HXs 2.{o{ P P.)X",
"!O)opo&XP.Z.k }.uOHXwX`XKXrol+w vOUoBoh.1.)XSO)OY u yX4 i soVocoI./XY+N+( g $+6.n+Z.G }oyX(.To1.A ^ dOWXa+j 7 '.'X3+2.sXn.4 &oj+",
"_O8 VXJ 3+#+[.IX^ h k+3+i I.F+/.]oO+sXZ.T.6 KXuOcoI.gXcOD.1.7+O+r.yO)o[OXX$OHol+z -Ol+p.q.aO  # KOcXkX{XXo7XIOz ior+;Oko$+; D.h+"
};
