/* XPM */
static char *graphic[] = {
/* width height num_colors chars_per_pixel */
"16 16 142 2", 
/* colors */
"   c None",
".  c None",
"X  c None",
"o  c None",
"O  c None",
"+  c None",
"@  c #EB1C25",
"#  c None",
"$  c None",
"%  c None",
"&  c None",
"*  c None",
"=  c #EC1B24",
"-  c #EC1B25",
";  c None",
":  c None",
">  c None",
",  c None",
"<  c None",
"1  c #EC1B25",
"2  c None",
"3  c None",
"4  c #EC1B26",
"5  c None",
"6  c #EB1C25",
"7  c #EC1B26",
"8  c #EB1C24",
"9  c None",
"0  c None",
"q  c None",
"w  c #EB1C25",
"e  c #EB1C26",
"r  c None",
"t  c None",
"y  c None",
"u  c None",
"i  c None",
"p  c #ED1B26",
"a  c None",
"s  c None",
"d  c None",
"f  c #EC1C24",
"g  c None",
"h  c #ED1B25",
"j  c None",
"k  c None",
"l  c None",
"z  c None",
"x  c None",
"c  c None",
"v  c None",
"b  c None",
"n  c None",
"m  c None",
"M  c None",
"N  c None",
"B  c #EC1C26",
"V  c #EB1C25",
"C  c #EC1C24",
"Z  c None",
"A  c #EC1C24",
"S  c #EB1C26",
"D  c None",
"F  c None",
"G  c None",
"H  c None",
"J  c None",
"K  c None",
"L  c #EC1C24",
"P  c None",
"I  c None",
"U  c #EC1C25",
"Y  c #EC1C25",
"T  c None",
"R  c None",
"E  c None",
"W  c None",
"Q  c None",
"!  c None",
"~  c None",
"^  c None",
"/  c None",
"(  c #ED1C26",
")  c None",
"_  c None",
"`  c None",
"'  c None",
"]  c #EC1C25",
"[  c None",
"{  c None",
"}  c None",
"|  c None",
" . c #EC1C25",
".. c None",
"X. c #EB1B26",
"o. c None",
"O. c None",
"+. c None",
"@. c None",
"#. c #EC1C25",
"$. c #EC1C26",
"%. c None",
"&. c None",
"*. c None",
"=. c None",
"-. c None",
";. c #EB1B25",
":. c None",
">. c None",
",. c #EB1B26",
"<. c None",
"1. c None",
"2. c None",
"3. c None",
"4. c None",
"5. c None",
"6. c None",
"7. c #EC1B25",
"8. c #EB1B25",
"9. c None",
"0. c None",
"q. c #EA1C25",
"w. c #ED1C25",
"e. c None",
"r. c None",
"t. c #ED1C26",
"y. c None",
"u. c #EA1A24",
"i. c None",
"p. c None",
"a. c #EB1B25",
"s. c None",
"d. c #ED1C26",
"f. c None",
"g. c #EB1B25",
"h. c None",
"j. c None",
"k. c #EC1B25",
"l. c #EB1B26",
"z. c None",
"x. c None",
"c. c None",
/* pixels */
"            o.r e.m             ",
"            } 8 A 4.            ",
"          i =.#.#.g i           ",
"        E b 8.7 4 - & E         ",
"        h.u. .I q w.B 2         ",
"      9 W ] k.< # ,.S > /       ",
"      X C V 9.~ + ..a.w r.      ",
"    Q +.$.7.z.x % z.X.$.o u     ",
"  E >.h L J Q 0 &.s.i.Y U y E   ",
"  p.@ d.x.P 5 | | *.* K $.( [   ",
"! : = p Z h.O H l O 0.*.;.1 f.+ ",
"G 6 l.z D z.d z.j.N h./ 2.t.e v ",
"{ g.f R   E ! E . ! E   0.q.] y.",
"3.:.} E                 E 5.j a ",
"_ ; c.^ @.M t 3 %.^ F F -.3 O.<.",
"1.$ ` ' k 6.c s ' 6., ) T k ` n "
};
